HIERARCHY
ROOT Hips
{
	OFFSET 0.000000 0.000000 0.000000 
	CHANNELS 6 Xposition Yposition Zposition Zrotation Yrotation Xrotation
	JOINT LeftUpLeg
	{
		OFFSET 1.363060 -1.794630 0.839290 
		CHANNELS 3 Zrotation Yrotation Xrotation
		JOINT LeftLeg
		{
			OFFSET 2.448110 -6.726130 0.000000 
			CHANNELS 3 Zrotation Yrotation Xrotation
			JOINT LeftFoot
			{
				OFFSET 2.562200 -7.039590 0.000000 
				CHANNELS 3 Zrotation Yrotation Xrotation
				JOINT LeftToeBase
				{
					OFFSET 0.157640 -0.433110 2.322550 
					CHANNELS 3 Zrotation Yrotation Xrotation
					End Site
					{
						OFFSET 0.000000 0.000000 0.000000 
					}
				}
			}
		}
	}
	JOINT RightUpLeg
	{
		OFFSET -1.305520 -1.794630 0.839290 
		CHANNELS 3 Zrotation Yrotation Xrotation
		JOINT RightLeg
		{
			OFFSET -2.542530 -6.985550 0.000000 
			CHANNELS 3 Zrotation Yrotation Xrotation
			JOINT RightFoot
			{
				OFFSET -2.568260 -7.056230 0.000000 
				CHANNELS 3 Zrotation Yrotation Xrotation
				JOINT RightToeBase
				{
					OFFSET -0.164730 -0.452590 2.363150 
					CHANNELS 3 Zrotation Yrotation Xrotation
					End Site
					{
						OFFSET 0.000000 0.000000 0.000000 
					}
				}
			}
		}
	}
	JOINT Spine
	{
		OFFSET 0.028270 2.035590 -0.193380 
		CHANNELS 3 Zrotation Yrotation Xrotation
		JOINT Spine1
		{
			OFFSET 0.056720 2.048850 -0.042750 
			CHANNELS 3 Zrotation Yrotation Xrotation
			JOINT Neck1
			{
				OFFSET -0.054170 1.746240 0.172020 
				CHANNELS 3 Zrotation Yrotation Xrotation
				JOINT Head
				{
					OFFSET 0.104070 1.761360 -0.123970 
					CHANNELS 3 Zrotation Yrotation Xrotation
					End Site
					{
						OFFSET 0.000000 0.000000 0.000000 
					}
				}
			}
			JOINT LeftArm
			{
				OFFSET 3.362410 1.200890 -0.311210 
				CHANNELS 3 Zrotation Yrotation Xrotation
				JOINT LeftForeArm
				{
					OFFSET 4.983000 -0.000000 -0.000000 
					CHANNELS 3 Zrotation Yrotation Xrotation
					JOINT LeftHand
					{
						OFFSET 3.483560 -0.000000 -0.000000 
						CHANNELS 3 Zrotation Yrotation Xrotation
						JOINT LeftHandIndex1
						{
							OFFSET 0.715260 -0.000000 -0.000000 
							CHANNELS 3 Zrotation Yrotation Xrotation
							End Site
							{
								OFFSET 0.000000 0.000000 0.000000 
							}
						}
					}
				}
			}
			JOINT RightArm
			{
				OFFSET -3.136600 1.374050 -0.404650 
				CHANNELS 3 Zrotation Yrotation Xrotation
				JOINT RightForeArm
				{
					OFFSET -5.241900 -0.000000 -0.000000 
					CHANNELS 3 Zrotation Yrotation Xrotation
					JOINT RightHand
					{
						OFFSET -3.444170 -0.000000 -0.000000 
						CHANNELS 3 Zrotation Yrotation Xrotation
						JOINT RightHandIndex1
						{
							OFFSET -0.622530 -0.000000 -0.000000 
							CHANNELS 3 Zrotation Yrotation Xrotation
							End Site
							{
								OFFSET 0.000000 0.000000 0.000000 
							}
						}
					}
				}
			}
		}
	}
}
MOTION
Frames: 5
Frame Time: 0.041667
14.881734 17.701358 5.386007 -0.564348 -10.728940 13.932352 -22.026978 -15.752238 -16.515634 1.301265 7.593107 23.240363 0.574510 -8.963166 -14.773730 1.690600 -8.189500 -23.291200 30.897265 8.283002 -19.755781 -2.410277 -7.649740 23.867330 -0.400138 12.819831 -12.563032 -2.275600 -9.418000 27.111700 0.651288 -1.212373 -4.167781 -3.500608 -0.117027 -9.486158 -10.147284 14.409616 -29.410948 -12.346700 2.433800 -14.516700 -27.949481 14.761218 51.475790 149.556578 -38.063005 -111.288996 0.489077 -1.994596 -27.574407 -7.125000 0.000000 0.000000 37.759584 -15.350477 33.614033 -149.890942 35.232605 -111.361380 -1.690786 4.610604 2.833018 7.125000 0.000000 0.000000 
14.876838 17.709682 5.348795 -0.570768 -10.912171 14.186716 -21.949014 -15.144940 -17.301560 1.363224 7.708015 23.526582 0.489249 -9.548761 -14.255270 1.695900 -8.201700 -23.328400 30.821920 9.162709 -20.089418 -2.408649 -7.760514 24.088211 -0.448976 12.151370 -12.827779 -2.129900 -9.131500 26.207600 0.558070 -1.003646 -4.125612 -3.638431 -0.022901 -9.447008 -9.983275 14.204543 -29.079288 -12.213400 2.407200 -14.391900 -26.130458 13.927957 48.740791 150.753751 -36.812944 -111.982494 0.625714 -2.061278 -29.405217 -7.125000 0.000000 0.000000 37.287999 -14.510443 28.402566 -150.327269 34.696457 -111.626748 -1.962356 4.614286 2.058963 7.125000 0.000000 0.000000 
14.869395 17.711934 5.319025 -0.406951 -11.017226 14.150523 -22.121926 -14.579039 -17.688642 1.404048 7.790789 23.753431 0.448341 -9.738768 -13.991415 1.823000 -8.487300 -24.204200 30.620524 9.723952 -20.187730 -2.427548 -7.863387 24.344466 -0.465046 11.619724 -12.861543 -2.137100 -9.146000 26.253100 0.503486 -0.835801 -4.053889 -3.470787 0.079726 -9.374579 -9.912331 13.986169 -28.593550 -12.108500 2.417100 -14.174500 -24.656599 12.967970 45.259258 151.756764 -35.703313 -112.545860 0.775717 -2.090516 -31.695032 -7.125000 0.000000 0.000000 36.756539 -13.552054 23.173402 -150.365351 34.588941 -111.700916 -2.090206 4.620899 1.101230 7.125000 0.000000 0.000000 
14.857252 17.720062 5.295914 -0.205663 -11.118998 14.044223 -22.318404 -14.155587 -17.900389 1.437977 7.834165 23.882542 0.385675 -10.087760 -13.587594 1.739800 -8.301700 -23.634100 30.404900 10.210390 -20.227959 -2.449960 -7.966595 24.614807 -0.483110 11.077741 -12.919275 -2.104600 -9.080600 26.047800 0.468727 -0.717165 -3.982511 -3.165705 0.170553 -9.334374 -9.939187 13.892167 -28.346460 -12.035200 2.477600 -14.087700 -23.517953 12.132786 41.352926 152.462932 -34.882290 -112.938761 0.912156 -2.092807 -34.057837 -7.125000 0.000000 0.000000 36.320309 -12.652418 19.443064 -150.103230 34.810374 -111.615398 -2.106338 4.627735 0.782838 7.125000 0.000000 0.000000 
14.844522 17.734262 5.273587 0.037390 -11.257925 14.145718 -22.509595 -13.850303 -18.322654 1.473067 7.862375 23.945335 0.255918 -10.672721 -12.711804 1.371200 -7.410600 -20.937700 30.112700 10.760757 -20.467002 -2.461938 -8.058321 24.818375 -0.497926 10.565441 -12.982672 -2.029600 -8.927500 25.568800 0.431693 -0.659788 -3.940697 -2.906115 0.222320 -9.257680 -10.037833 13.858393 -28.147857 -12.036100 2.529600 -13.977000 -22.625392 11.444161 37.537731 152.814224 -34.537324 -113.035752 1.185425 -2.089322 -36.511342 -7.125000 0.000000 0.000000 36.026720 -12.063005 18.268245 -149.792030 35.104300 -111.461988 -2.130425 4.604029 1.854336 7.125000 0.000000 0.000000 
